<?xml version="1.0" encoding="UTF-8"?>
<svg width="80mm" height="15.866mm" version="1.1" viewBox="0 0 80 15.866" xmlns="http://www.w3.org/2000/svg">
<g transform="matrix(1.0897 0 0 1.0897 -111.21 -57.973)">
<text x="123.24204" y="64.600746" font-family="'Fredoka One'" font-size="15.625px" stroke-width=".39063" style="line-height:1.25" xml:space="preserve"><tspan x="123.24204" y="64.600746" font-family="Inter" font-weight="bold" stroke-width=".39063">Meetly</tspan></text>
<g transform="matrix(1.524 0 0 1.524 26.321 -124.74)">
<text x="49.263374" y="124.33943" fill="#000000" font-family="'Fredoka One'" font-size="10.253px" stroke-width=".25632" style="line-height:1.25" xml:space="preserve"><tspan x="49.263374" y="124.33943" fill="#000000" font-family="Inter" font-weight="bold" stroke-width=".25632">Go</tspan></text>
<rect transform="rotate(90)" x="117.44" y="-60.758" width=".69848" height=".61827" stroke-width=".015322"/>
<rect transform="rotate(60)" x="131.4" y="7.7781" width=".69848" height=".61827" stroke-width=".015322"/>
<rect transform="matrix(-.5 .86603 .86603 .5 0 0)" x="71.048" y="112.34" width=".69848" height=".61827" stroke-width=".015322"/>
<rect transform="rotate(90)" x="116.82" y="-61.273" width=".62096" height="1.6479" stroke-width=".023586"/>
</g>
</g>
<g transform="matrix(1.0897 0 0 1.0897 -111.35 -58.013)">
<g transform="matrix(1.524 0 0 1.524 26.321 -124.74)">
<g transform="matrix(.65617 0 0 .65617 -17.271 81.848)" stroke-width=".39063" aria-label="Meetly">
<path d="m124.23 53.237h2.963l3.1295 7.635h0.13316l3.1295-7.635h2.963v11.364h-2.3304v-7.3964h-0.0943l-2.9408 7.3409h-1.5869l-2.9408-7.3687h-0.0943v7.4241h-2.3304z"/>
<path d="m142.36 64.767q-1.315 0-2.2639-0.53267-0.94328-0.53822-1.4538-1.5203-0.51047-0.98767-0.51047-2.336 0-1.315 0.51047-2.3083 0.51048-0.99322 1.4371-1.5481 0.93218-0.55487 2.1862-0.55487 0.8434 0 1.5703 0.27188 0.73243 0.26634 1.2762 0.80456 0.54932 0.53822 0.8545 1.3539 0.30518 0.81011 0.30518 1.8977v0.6492h-7.1966v-1.4649h4.9716q0-0.51048-0.22194-0.90444-0.22195-0.39396-0.61591-0.6159-0.3884-0.2275-0.90443-0.2275-0.53823 0-0.95438 0.24969-0.4106 0.24414-0.64364 0.66029-0.23305 0.4106-0.2386 0.91553v1.3927q0 0.63255 0.23305 1.0931 0.23859 0.46054 0.67139 0.71023t1.0265 0.24969q0.39396 0 0.72133-0.11097 0.32738-0.11097 0.56042-0.33292 0.23305-0.22195 0.35512-0.54377l2.1862 0.14427q-0.16646 0.78791-0.68249 1.3761-0.51048 0.58261-1.3206 0.90998-0.80456 0.32182-1.8588 0.32182z"/>
<path d="m151.7 64.767q-1.315 0-2.2639-0.53267-0.94328-0.53822-1.4538-1.5203-0.51048-0.98767-0.51048-2.336 0-1.315 0.51048-2.3083 0.51048-0.99322 1.4371-1.5481 0.93218-0.55487 2.1862-0.55487 0.84341 0 1.5703 0.27188 0.73243 0.26634 1.2762 0.80456 0.54932 0.53822 0.8545 1.3539 0.30518 0.81011 0.30518 1.8977v0.6492h-7.1966v-1.4649h4.9716q0-0.51048-0.22194-0.90444-0.22195-0.39396-0.61591-0.6159-0.38841-0.2275-0.90443-0.2275-0.53823 0-0.95438 0.24969-0.4106 0.24414-0.64365 0.66029-0.23304 0.4106-0.23859 0.91553v1.3927q0 0.63255 0.23305 1.0931 0.23859 0.46054 0.67139 0.71023 0.43279 0.24969 1.0265 0.24969 0.39396 0 0.72133-0.11097 0.32738-0.11097 0.56042-0.33292 0.23304-0.22195 0.35512-0.54377l2.1862 0.14427q-0.16646 0.78791-0.68249 1.3761-0.51048 0.58261-1.3206 0.90998-0.80456 0.32182-1.8588 0.32182z"/>
<path d="m161.69 56.078v1.7756h-5.1325v-1.7756zm-3.9673-2.0419h2.3637v7.9457q0 0.32737 0.0999 0.51048 0.0999 0.17756 0.27744 0.24969 0.18311 0.07213 0.4217 0.07213 0.16646 0 0.33292-0.02774 0.16646-0.03329 0.25524-0.04994l0.37176 1.7589q-0.17756 0.05549-0.49938 0.12762-0.32182 0.07768-0.78237 0.09433-0.85449 0.03329-1.4981-0.2275-0.6381-0.26079-0.99322-0.81011-0.35511-0.54932-0.34956-1.3872z"/>
<path d="m165.77 53.237v11.364h-2.3637v-11.364z"/>
<path d="m169.11 67.797q-0.44944 0-0.8434-0.07213-0.38841-0.06658-0.64365-0.17201l0.53268-1.7645q0.41615 0.12762 0.74907 0.13872 0.33847 0.0111 0.58261-0.15536 0.24969-0.16646 0.40506-0.56597l0.13871-0.36066-3.0573-8.7669h2.4858l1.7645 6.2589h0.0888l1.7811-6.2589h2.5024l-3.3126 9.4439q-0.23859 0.68804-0.6492 1.1985-0.40505 0.51603-1.0265 0.79346-0.62146 0.28298-1.4982 0.28298z"/>
</g>
<g stroke-width=".25632" aria-label="Go">
<path d="m54.856 119.29q-0.07646-0.26578-0.21481-0.46968-0.13835-0.20753-0.3386-0.34952-0.19661-0.14564-0.45147-0.2221-0.25122-0.0765-0.55706-0.0765-0.57162 0-1.0049 0.28399-0.42963 0.28399-0.66993 0.82649-0.2403 0.53885-0.2403 1.318 0 0.77915 0.23666 1.3253t0.66993 0.83377q0.43327 0.28399 1.0231 0.28399 0.53521 0 0.91387-0.18933 0.3823-0.19297 0.58254-0.54249 0.20389-0.34953 0.20389-0.82649l0.3204 0.0473h-1.9224v-1.1869h3.1203v0.93935q0 0.98305-0.41506 1.6894-0.41506 0.7027-1.1432 1.085-0.72818 0.37866-1.6675 0.37866-1.0486 0-1.8423-0.4624-0.79372-0.46603-1.2379-1.3216-0.44055-0.85925-0.44055-2.0389 0-0.90658 0.26215-1.6166 0.26579-0.71362 0.74274-1.2088 0.47696-0.49517 1.1105-0.75367 0.63352-0.25851 1.3726-0.25851 0.63352 0 1.1797 0.18569 0.54614 0.18205 0.96848 0.51701 0.42599 0.33496 0.69541 0.79736 0.26943 0.45875 0.34589 1.0122z"/>
<path d="m60.208 124.45q-0.84833 0-1.4673-0.36045-0.61531-0.36409-0.95028-1.0122-0.33496-0.65173-0.33496-1.511 0-0.86654 0.33496-1.5146 0.33496-0.65172 0.95028-1.0122 0.61896-0.36409 1.4673-0.36409 0.84833 0 1.4636 0.36409 0.61895 0.36045 0.95392 1.0122 0.33496 0.64808 0.33496 1.5146 0 0.85925-0.33496 1.511-0.33496 0.64808-0.95392 1.0122-0.61531 0.36045-1.4636 0.36045zm0.0073-1.2015q0.38594 0 0.64444-0.21846 0.2585-0.22209 0.38958-0.60439 0.13471-0.38229 0.13471-0.87017 0-0.48789-0.13471-0.87018-0.13107-0.3823-0.38958-0.60439-0.2585-0.2221-0.64444-0.2221-0.38958 0-0.65536 0.2221-0.26215 0.22209-0.39686 0.60439-0.13107 0.38229-0.13107 0.87018 0 0.48788 0.13107 0.87017 0.13471 0.3823 0.39686 0.60439 0.26579 0.21846 0.65536 0.21846z"/>
</g>
<rect transform="rotate(90)" x="117.44" y="-60.758" width=".69848" height=".61827" stroke-width=".015322"/>
<rect transform="rotate(60)" x="131.4" y="7.7781" width=".69848" height=".61827" stroke-width=".015322"/>
<rect transform="matrix(-.5 .86603 .86603 .5 0 0)" x="71.048" y="112.34" width=".69848" height=".61827" stroke-width=".015322"/>
<rect transform="rotate(90)" x="116.82" y="-61.273" width=".62096" height="1.6479" stroke-width=".023586"/>
</g>
</g>
</svg>
